<svg width="111" height="112" viewBox="0 0 111 112" fill="none" xmlns="http://www.w3.org/2000/svg">
<path d="M58.8352 19.0463H51.4668V60.0583L78.088 72.7107L81.2511 66.0557L58.8352 55.402V19.0463Z" fill="black"/>
<path d="M55.2627 0.740509C24.742 0.740509 0 25.4825 0 56.0032C0 86.5239 24.742 111.266 55.2627 111.266C85.7834 111.266 110.525 86.5239 110.525 56.0032C110.525 25.4825 85.7834 0.740509 55.2627 0.740509ZM55.2627 103.898C28.8114 103.898 7.36836 82.4545 7.36836 56.0032C7.36836 29.552 28.8114 8.10887 55.2627 8.10887C81.714 8.10887 103.157 29.552 103.157 56.0032C103.157 82.4545 81.714 103.898 55.2627 103.898Z" fill="black"/>
</svg>
