<svg width="111" height="103" viewBox="0 0 111 103" fill="none" xmlns="http://www.w3.org/2000/svg">
<path d="M104.999 13.6224H84.7362V0.727814H77.3678V13.6224H33.1576V0.727814H25.7893V13.6224H5.52627C4.06114 13.6242 2.6565 14.2069 1.62049 15.2429C0.584485 16.2789 0.00170634 17.6836 0 19.1487V96.5165C0.00170634 97.9816 0.584485 99.3863 1.62049 100.422C2.6565 101.458 4.06114 102.041 5.52627 102.043H104.999C106.464 102.041 107.869 101.458 108.905 100.422C109.941 99.3863 110.524 97.9816 110.525 96.5165V19.1487C110.524 17.6836 109.941 16.2789 108.905 15.2429C107.869 14.2069 106.464 13.6242 104.999 13.6224ZM103.157 94.6744H7.36836V20.9908H25.7893V30.2013H33.1576V20.9908H77.3678V30.2013H84.7362V20.9908H103.157V94.6744Z" fill="black"/>
<path d="M29.4738 43.0959H22.1055V50.4642H29.4738V43.0959Z" fill="black"/>
<path d="M49.7365 43.0959H42.3682V50.4642H49.7365V43.0959Z" fill="black"/>
<path d="M68.1574 43.0959H60.7891V50.4642H68.1574V43.0959Z" fill="black"/>
<path d="M88.4201 43.0959H81.0518V50.4642H88.4201V43.0959Z" fill="black"/>
<path d="M29.4738 59.6747H22.1055V67.0431H29.4738V59.6747Z" fill="black"/>
<path d="M49.7365 59.6747H42.3682V67.0431H49.7365V59.6747Z" fill="black"/>
<path d="M68.1574 59.6747H60.7891V67.0431H68.1574V59.6747Z" fill="black"/>
<path d="M88.4201 59.6747H81.0518V67.0431H88.4201V59.6747Z" fill="black"/>
<path d="M29.4738 76.2535H22.1055V83.6219H29.4738V76.2535Z" fill="black"/>
<path d="M49.7365 76.2535H42.3682V83.6219H49.7365V76.2535Z" fill="black"/>
<path d="M68.1574 76.2535H60.7891V83.6219H68.1574V76.2535Z" fill="black"/>
<path d="M88.4201 76.2535H81.0518V83.6219H88.4201V76.2535Z" fill="black"/>
</svg>
